<svg xmlns="http://www.w3.org/2000/svg" viewBox="0 0 1024 1024" version="1.1"><path d="M896 128a42.7 42.7 0 0 1 42.7 42.7v682.7a42.7 42.7 0 0 1-42.7 42.7H128a42.7 42.7 0 0 1-42.7-42.7V170.7a42.7 42.7 0 0 1 42.7-42.7h768zM401 341.3h-85.3l-136.5 341.3h91.9l17.1-42.7h140.4l17.1 42.7h91.9L401 341.3zM810.7 341.3h-85.3v85.3h-42.7a128 128 0 0 0-7.5 255.8L682.7 682.7h128V341.3z m-85.3 170.7v85.3h-42.7l-5-0.3a42.7 42.7 0 0 1 0-84.7L682.7 512h42.7z m-367-47.6L394.4 554.7H322.2l36.1-90.2z" p-id="2624"></path></svg>