<svg xmlns="http://www.w3.org/2000/svg" viewBox="0 0 1024 1024" version="1.1"><path d="M914 655.3c-163.4-49.2-258.3-78.5-284.9-88a529.5 529.5 0 0 0 56.3-141.7H546.1V378.5h170.7v-29h-170.7V270.7h-65.5c-11.9 0-13.3 10.6-13.3 10.6v67.9H307.2v29h160.1v47.1H336.2v26.3h265.6a468.1 468.1 0 0 1-37.9 92.8c-60.1-19.8-93.5-33.5-166.9-40.3-138.9-13.3-171 63.1-176.1 109.9C213.3 685.4 276.5 743.4 370.7 743.4s157-43.7 216.7-116.1c49.8 23.8 142.4 65.1 277.9 123.8A426.2 426.2 0 0 1 512 938.7C276.4 938.7 85.3 747.6 85.3 512S276.4 85.3 512 85.3s426.7 191 426.7 426.7a425.9 425.9 0 0 1-24.7 143.3z m-554.2 43.1c-99.7 0-115.4-63.1-110.3-89.4 5.1-26.3 34.1-60.4 89.8-60.4 63.8 0 120.8 16.4 189.4 49.5-48.5 63.1-107.5 100.4-169 100.4z" p-id="14702"></path></svg>