<svg xmlns="http://www.w3.org/2000/svg" viewBox="0 0 1024 1024" version="1.1"><path d="M496 308.1c-37.4 0-95.2-42.5-156.2-41-80.4 1-154.1 46.6-195.6 118.8-83.5 144.9-21.5 358.9 59.9 476.7 39.9 57.3 87 121.9 149.5 119.8 59.9-2.6 82.4-38.9 155.1-38.9 72.2 0 92.7 38.9 156.2 37.4 64.5-1 105.5-58.4 144.9-116.2 45.6-66.6 64.5-131.1 65.5-134.7-1.5-0.5-125.4-48.1-127-191.5-1-119.8 97.8-177.2 102.4-179.7-56.3-82.4-142.8-91.6-173.1-93.7-78.8-6.1-144.9 43-181.8 43z m133.1-120.8c33.3-39.9 55.3-95.7 49.2-151-47.6 2-105 31.7-139.3 71.7-30.7 35.3-57.3 92.2-50.2 146.4 52.7 4.1 107-27.1 140.3-67.1z" p-id="14812"></path></svg>