<svg xmlns="http://www.w3.org/2000/svg" viewBox="0 0 1024 1024" version="1.1"><path d="M252.9 533.2c88-18.9 76-124.1 73.4-147.1-4.3-35.4-46-97.4-102.6-92.5-71.3 6.4-81.6 109.3-81.6 109.3-9.6 47.6 23 149.2 110.8 130.3z m93.4 183c-2.6 7.4-8.3 26.3-3.3 42.8 9.8 36.9 41.9 38.6 41.9 38.6h46.1v-112.6H381.6c-22.2 6.6-32.9 23.9-35.3 31.3z m69.9-359.3c48.6 0 87.9-56 87.9-125.1 0-69.1-39.3-125-87.9-125-48.5 0-87.9 55.9-87.9 125 0 69.2 39.4 125.1 87.9 125.1z m209.4 8.2c64.9 8.4 106.7-60.9 115-113.5 8.5-52.5-33.5-113.4-79.4-123.9-46.1-10.6-103.6 63.3-108.9 111.4-6.3 58.9 8.4 117.7 73.3 126z m0 147.1c-79.6-123.9-192.6-73.5-230.4-10.5-37.6 63-96.3 102.8-104.6 113.4-8.4 10.4-121.4 71.4-96.3 182.8 25 111.3 113.2 109.2 113.2 109.2s64.9 6.4 140.2-10.5c75.3-16.7 140.2 4.2 140.2 4.2s176 58.9 224.1-54.5c48.1-113.5-27.2-172.3-27.2-172.3s-100.5-77.8-159.2-161.8z m-256.3 330.7c-49.4-9.9-69.1-43.6-71.6-49.3-2.4-5.8-16.5-32.9-9-79.1 21.3-69.1 82.2-74 82.2-74h60.9v-74.9l51.8 0.9v276.4h-114.3z m195.8-0.8c-51-13.1-53.4-49.4-53.4-49.4v-145.6l53.4-0.9v130.8c3.3 14 20.6 16.5 20.6 16.5h54.2v-146.5h56.8v195h-131.7z m318-388.7c0-25.2-20.9-100.9-98.3-100.9-77.6 0-88 71.5-88 122 0 48.2 4.1 115.5 100.4 113.4 96.4-2.1 85.9-109.2 85.9-134.5z" p-id="14845"></path></svg>