<svg xmlns="http://www.w3.org/2000/svg" viewBox="0 0 1024 1024" version="1.1"><path d="M777.5 131.7a53.3 53.3 0 0 1 0 75.4L728.7 255.8h49.9A160 160 0 0 1 938.7 415.9v320a160 160 0 0 1-160 160H245.3A160 160 0 0 1 85.3 735.9v-320a160 160 0 0 1 160-160h49.7L246.4 207.1a53.3 53.3 0 1 1 75.4-75.4l113.2 113.2c3.4 3.4 6.2 7 8.4 11h137.1c2.3-3.9 5.1-7.7 8.5-11l113.1-113.2a53.3 53.3 0 0 1 75.4 0z m1.2 231.3H245.3a53.3 53.3 0 0 0-53.2 49.4l-0.1 4v320c0 28.1 21.8 51.2 49.4 53.2l4 0.2h533.3a53.3 53.3 0 0 0 53.2-49.4l0.1-4v-320c0-29.4-23.9-53.3-53.3-53.3z m-426.7 106.7c29.4 0 53.3 23.9 53.3 53.3v53.3a53.3 53.3 0 1 1-106.7 0v-53.3c0-29.4 23.9-53.3 53.3-53.3z m320 0c29.4 0 53.3 23.9 53.3 53.3v53.3a53.3 53.3 0 1 1-106.7 0v-53.3c0-29.4 23.9-53.3 53.3-53.3z" p-id="14922"></path></svg>