<svg xmlns="http://www.w3.org/2000/svg" viewBox="0 0 1024 1024" version="1.1"><path d="M512 85.3c235.5 0 426.7 191.1 426.7 426.7s-191.1 426.7-426.7 426.7S85.3 747.5 85.3 512 276.5 85.3 512 85.3z m0 85.3c-188.6 0-341.3 152.7-341.3 341.3s152.7 341.3 341.3 341.3 341.3-152.7 341.3-341.3-152.7-341.3-341.3-341.3z m0 128c77.7 0 145.6 41.5 183 103.6l-73.1 43.9A128 128 0 1 0 512 640a127.9 127.9 0 0 0 109.8-62.1l73.2 43.9A213.3 213.3 0 0 1 298.7 512c0-117.8 95.6-213.3 213.3-213.3z" p-id="3339"></path></svg>