<svg xmlns="http://www.w3.org/2000/svg" viewBox="0 0 1024 1024" version="1.1"><path d="M696.1 816.6h173.4a26.5 26.5 0 0 1 26.5 26.5v26.5a26.5 26.5 0 0 1-26.5 26.5H154.5a26.5 26.5 0 0 1-26.5-26.5v-26.5a26.5 26.5 0 0 1 26.5-26.5h160.2l-41-132.4h93.4a26.5 26.5 0 0 1 25.2 18.1l38.1 114.3H580.3l52.3-172.2H220.7a26.5 26.5 0 0 1-26.5-26.5V313.4a26.5 26.5 0 0 1 26.5-26.5h582.7a26.5 26.5 0 0 1 26.5 26.5v304.6a26.5 26.5 0 0 1-26.5 26.5h-55l-52.3 172.2zM167.7 128h688.6a26.5 26.5 0 0 1 26.5 26.5v26.5a26.5 26.5 0 0 1-26.5 26.5H167.7a26.5 26.5 0 0 1-26.5-26.5V154.5A26.5 26.5 0 0 1 167.7 128zM306.8 366.3a6.6 6.6 0 0 0-6.7 6.6v172.2c0 3.7 3 6.6 6.7 6.6h410.5c3.7 0 6.7-3 6.7-6.6V372.9a6.6 6.6 0 0 0-6.7-6.6H306.8z" p-id="15175"></path></svg>