<svg xmlns="http://www.w3.org/2000/svg" viewBox="0 0 1024 1024" version="1.1"><path d="M263.3 768a128 128 0 0 1 241.5 0H938.7v85.3H504.7a128 128 0 0 1-241.5 0H85.3v-85.3h177.9z m256-298.7a128 128 0 0 1 241.5 0H938.7v85.3h-177.9a128 128 0 0 1-241.5 0H85.3v-85.3h433.9z m-256-298.7a128 128 0 0 1 241.5 0H938.7v85.3H504.7a128 128 0 0 1-241.5 0H85.3V170.7h177.9zM384 256a42.7 42.7 0 1 0 0-85.3 42.7 42.7 0 0 0 0 85.3z m256 298.7a42.7 42.7 0 1 0 0-85.3 42.7 42.7 0 0 0 0 85.3z m-256 298.7a42.7 42.7 0 1 0 0-85.3 42.7 42.7 0 0 0 0 85.3z" p-id="19047"></path></svg>