<?xml version="1.0" encoding="utf-8"?>
<!-- Generator: Adobe Illustrator 24.3.0, SVG Export Plug-In . SVG Version: 6.00 Build 0)  -->
<svg version="1.1" id="图层_1" xmlns="http://www.w3.org/2000/svg" xmlns:xlink="http://www.w3.org/1999/xlink" x="0px" y="0px"
	 viewBox="0 0 24 24" style="enable-background:new 0 0 24 24;" xml:space="preserve">
<path d="M11.9,22c-5.5,0-10-4.5-10-10s4.5-10,10-10s10,4.5,10,10S17.4,22,11.9,22z M17,10.9h-5.7c-0.3,0-0.5,0.3-0.5,0.5v1.3
	c0,0.3,0.3,0.5,0.5,0.5h3.4c0.3,0,0.5,0.3,0.5,0.5v0.3c0,0.8-0.7,1.5-1.5,1.5H9.1c-0.3,0-0.5-0.3-0.5-0.5v-4.8
	c0-0.8,0.7-1.5,1.5-1.5H17c0.3,0,0.5-0.3,0.5-0.5V6.9c0-0.3-0.2-0.5-0.5-0.5h-6.9c-2.1,0-3.7,1.7-3.7,3.7V17c0,0.2,0.3,0.5,0.5,0.5
	h7.3c1.8,0,3.3-1.5,3.3-3.3v-2.8C17.5,11.1,17.2,10.9,17,10.9L17,10.9z"/>
</svg>
