<svg xmlns="http://www.w3.org/2000/svg" viewBox="0 0 1024 1024" version="1.1"><path d="M130.7 320.4A426.5 426.5 0 0 1 512 85.3c115 0 211.6 42.2 285.4 111.1l-122.3 122.4C630.9 276.6 574.6 255 512 255c-111.1 0-205.2 75.1-238.7 175.9-8.5 25.6-13.4 52.9-13.4 81.1 0 28.2 4.9 55.5 13.4 81.1 33.5 100.9 127.6 175.9 238.7 175.9 57.4 0 106.2-15.1 144.5-40.7a196.3 196.3 0 0 0 85.2-128.8H512v-165h401.8c5 27.9 7.8 57 7.8 87.3 0 130-46.5 239.4-127.2 313.6C723.8 900.5 627.2 938.7 512 938.7A426.5 426.5 0 0 1 85.3 512c0-68.9 16.5-134 45.4-191.6z" p-id="15428"></path></svg>