<?xml version="1.0" encoding="utf-8"?>
<!-- Generator: Adobe Illustrator 24.3.0, SVG Export Plug-In . SVG Version: 6.00 Build 0)  -->
<svg version="1.1" id="图层_1" xmlns="http://www.w3.org/2000/svg" xmlns:xlink="http://www.w3.org/1999/xlink" x="0px" y="0px"
	 viewBox="0 0 24 24" style="enable-background:new 0 0 24 24;" xml:space="preserve">
<path d="M10.5,4.3c0,0-1.7-0.1-2.7,1.3C6.7,7,7.5,9.1,8,10.2c0.5,1.1,3.2,5.4,3.3,5.4c0.1,0.1,0.2,0.1,0.2,0c0-0.1,0.3-6.2,0.1-7.7
	C11.3,6.4,10.6,4.5,10.5,4.3z M4.7,7.2C4.5,7.2,3.1,8.6,3,9.9c-0.1,1.3,0.4,2.2,2,3.3c1.6,1.1,5.4,3.2,5.5,3.1
	c0.1-0.2-1.5-2.9-2.8-5C6.5,9.3,4.9,7.2,4.7,7.2L4.7,7.2z M5.2,19.5c1.2,0.5,3-0.6,3.5-1c0.5-0.4,1.3-1,1.3-1l-6.6,0.2
	C3.4,17.7,4,19,5.2,19.5z M5.4,14.2c-1.2-0.6-3.6-1.9-3.7-1.9c-0.1,0-0.5,1.7,0.3,3s2.2,1.7,2.9,1.8c0.8,0.1,5.2,0.1,5.2,0
	C10.1,16.9,6.5,14.8,5.4,14.2z M16.3,5.6c-1.1-1.4-2.7-1.3-2.7-1.3c-0.1,0.2-0.8,2.1-1.1,3.6c-0.2,1.5,0.1,7.6,0.1,7.7
	c0,0.1,0.1,0.1,0.2,0c0.1-0.1,2.8-4.4,3.3-5.4C16.5,9.1,17.3,7,16.3,5.6L16.3,5.6z M22.3,12.3c-0.1,0-2.5,1.3-3.7,1.9
	c-1.2,0.6-4.7,2.7-4.7,2.8c0,0.1,4.4,0.1,5.2,0c0.7-0.1,2.1-0.5,2.9-1.8C22.8,14,22.4,12.3,22.3,12.3L22.3,12.3z M15.3,18.5
	c0.5,0.3,2.3,1.5,3.5,1c1.2-0.5,1.8-1.8,1.8-1.8L14,17.5C14,17.5,14.9,18.2,15.3,18.5L15.3,18.5z M21,9.9c-0.1-1.3-1.5-2.7-1.7-2.7
	c-0.2,0-1.8,2.1-3.1,4.1c-1.3,2-2.8,4.8-2.8,5c0.1,0.2,3.9-1.9,5.5-3.1C20.5,12.1,21.1,11.2,21,9.9z"/>
</svg>
