<svg xmlns="http://www.w3.org/2000/svg" viewBox="0 0 1024 1024" version="1.1"><path d="M675.8 541.5l-2.9 0.9a64.9 64.9 0 0 1-17.7 2.6c-26 0-40.7-17.6-32.9-39.3 5.8-15.9 20.9-29.3 39.5-35.5 28.7-10.5 48.7-34.3 48.7-62.1 0-37.4-36.4-67.7-81.3-67.7s-81.2 30.3-81.2 67.7v207.7c0 49.9-29 93.7-72.3 118.5a163.4 163.4 0 0 1-81.2 21.4c-84.7 0-153.5-62.8-153.5-139.9 0-24.6 7-47.7 19.2-67.7 18.9-31.1 50.5-54.9 88.3-65.7a66.1 66.1 0 0 1 19.6-3.1c26.1 0 40.9 17.7 33 39.4-5.4 14.8-19.9 27.5-36.7 34.3a92.2 92.2 0 0 0-5.9 2.2c-26.8 11.1-45.3 34-45.3 60.7 0 37.4 36.4 67.7 81.3 67.7s81.2-30.3 81.2-67.7V408.1c0-49.9 29-93.7 72.3-118.5a163.4 163.4 0 0 1 81.2-21.4c84.7 0 153.5 62.8 153.5 139.9 0 24.6-7 47.7-19.2 67.7-18.9 31-50.3 54.7-87.8 65.6zM85.3 512c0 235.6 191 426.7 426.7 426.7s426.7-191 426.7-426.7S747.6 85.3 512 85.3 85.3 276.4 85.3 512z" p-id="15780"></path></svg>