<svg xmlns="http://www.w3.org/2000/svg" viewBox="0 0 1024 1024" version="1.1"><path d="M512 938.7C276.4 938.7 85.3 747.6 85.3 512S276.4 85.3 512 85.3s426.7 191 426.7 426.7-191 426.7-426.7 426.7z m-46.3-445.1c10.2-35.8 45.9-65.7 84.9-70.3 8 29.6 16.6 58.6 23.3 88 2.3 9.8 1.6 21.1-0.8 31-9.1 38.1-53.2 53-84.4 29.2-22.6-17.3-31.7-47.8-23-78z m162.9-8.4c-5.3-19.8-10.9-39.6-16.8-60.6 21.3 5.5 38.7 15.4 53.5 29.8 53.6 52.1 59.1 140.8 12.5 201.9-48.4 63.6-134.6 91.1-214.5 68.5-98.2-27.7-162.5-126-146.8-226.8 11.7-75.4 54.2-128.2 123.7-159.3 17.4-7.8 24.7-23.9 17.9-39.7-6.7-15.5-23-21.5-40.3-14.6-116.1 46.5-184.3 176.4-156.6 298.1 30.4 133 149.1 220.3 284.8 207.3 73.9-7 135-40.4 179.9-100.1 64.3-85.4 55.3-204.1-19.8-277.3-28.4-27.7-62.8-43.4-102-49.2-3.5-0.6-9.3-2.2-9.9-4.5-3.7-13.4-7.7-27-8.8-40.7-1.2-15.2 12.4-27.3 27.7-27.5 10.8-0.1 18.5 5.5 25.7 12.8 12.9 12.8 30 13.7 42.2 2.6 12.4-11.3 12.6-28.9 0.8-43-24.1-28.7-67.7-38-103.7-22.3-36.1 15.8-56.4 50.6-51.2 89.3 1.6 11.9 4.7 23.8 7.1 35.9l-11.1 3.1a164.8 164.8 0 0 0-89.5 60.3c-39.3 52.1-39.9 120.7-1.7 168.4 54.4 68 159.9 54.8 193-24.2 12.1-28.8 11.7-58.4 3.7-88.1z" p-id="15714"></path></svg>