<svg xmlns="http://www.w3.org/2000/svg" viewBox="0 0 1024 1024" version="1.1"><path d="M849.6 619.9a1364.4 1364.4 0 0 0-28.8-80.5l-38.8-95.8c0-1.1 0.5-20 0.5-29.7C782.5 250 704.3 85.3 512 85.3S241.5 250 241.5 413.9c0 9.8 0.5 28.6 0.5 29.7l-38.8 95.8a1398.5 1398.5 0 0 0-28.8 80.5c-36.7 116.8-24.8 165.1-15.7 166.2 19.4 2.3 75.6-87.9 75.6-87.9 0 52.2 27.2 120.4 86 169.6-22 6.7-48.9 17-66.3 29.7-15.6 11.4-13.6 23-10.8 27.7 12.3 20.5 211.4 13.1 268.9 6.7 57.5 6.4 256.6 13.8 268.9-6.7 2.8-4.7 4.8-16.3-10.8-27.7-17.4-12.6-44.3-23-66.3-29.7 58.8-49.2 86-117.4 86-169.6 0 0 56.1 90.2 75.6 87.9 9-1.1 20.9-49.4-15.8-166.1" p-id="16671"></path></svg>