<svg xmlns="http://www.w3.org/2000/svg" viewBox="0 0 1024 1024" version="1.1"><path d="M512 768a256 256 0 1 1 0-512 256 256 0 0 1 0 512zM469.3 42.7h85.3v128h-85.3V42.7z m0 810.7h85.3v128h-85.3v-128zM150 210.3l60.3-60.3L300.8 240.5 240.5 300.8 150 210.3zM723.2 783.5l60.3-60.3 90.5 90.5-60.3 60.3-90.5-90.5z m90.5-633.6l60.3 60.4-90.5 90.5-60.3-60.3 90.5-90.5zM240.5 723.2l60.3 60.3-90.5 90.5-60.3-60.3 90.5-90.5zM981.3 469.3v85.3h-128v-85.3h128zM170.7 469.3v85.3H42.7v-85.3h128z" p-id="1843"></path></svg>