<svg xmlns="http://www.w3.org/2000/svg" viewBox="0 0 1024 1024" version="1.1"><path d="M152.6 353.2l-50.9 78.6 93.9 58.5s62.5 32.2 32.6 92.5c-27.7 57.1-164.1 182.2-164.1 182.2l122.1 76.7c84.7-184.6 78.9-160 100.1-226.4 21.8-67.4 26.6-119.2-10.3-156.9-47.5-48-52.8-52.5-123.3-105.3z m66.7-29.6c44.4 0 80.3-32.3 80.3-72.2 0-40.2-36-72.6-80.3-72.6-44.7 0-80.5 32.5-80.5 72.6 0.2 39.7 35.8 72.2 80.5 72.2z m725.5 9s-26.6-207.8-478.2-79.1c19.4-33.9 28.5-55.8 28.5-55.8l-112.6-32s-45.7 149.7-126.8 219.3c0 0 78.8 45.8 77.9 44.4a728.3 728.3 0 0 0 60-68.1c18.1-8.1 35.4-15.5 52.3-22.4-21 37.8-54.5 94.6-88.2 130.4l47.4 42s32.5-31.5 67.8-69.1h40.2v69.8H356.1v55.7h157.2v133.7l-6-0.2c-17.4-0.9-44.2-3.8-54.9-20.7-12.7-20.7-3.3-58-2.7-81.2H341.1l-4 2.2s-39.9 179.4 114.7 175.5c144.5 3.9 227.4-40.8 267.3-71.6l15.8 59.5 89.2-37.6-60.4-148.7-72.2 22.9 13.4 50.8c-18.2 14.1-39.7 24.4-62.6 32.2v-116.8h153.3v-55.9h-153.3v-69.8h153.8V386.2h-273.5c19.8-24.3 35.1-46.5 39.3-60.4l-47.9-13.1c204.7-73.9 318.7-61.2 317.9 59.9v318.9s12.1 109.4-112.5 101.7l-67.4-14.6-15.7 64.5s290.9 83.9 314.6-141.4c23.6-225.4-6.1-369.2-6.1-369.2z" p-id="17331"></path></svg>