<svg xmlns="http://www.w3.org/2000/svg" viewBox="0 0 1024 1024" version="1.1"><path d="M792.5 585a38.8 38.8 0 0 0 38.3-38.3c0-21.2-17-38.3-38.3-38.3s-38.3 17.1-38.3 38.3c0 21.3 17.1 38.3 38.3 38.3z m-188.8 0a38.8 38.8 0 0 0 38.3-38.3c0-21.2-17.1-38.3-38.3-38.3-21.3 0-38.3 17.1-38.3 38.3 0 21.3 17 38.3 38.3 38.3z m280.2 215a14.8 14.8 0 0 0-7.3 15.8c0 2 0 4.1 1.1 6.3 4.2 17.8 12.5 46.1 12.5 47.2 0 3.1 1.1 5.2 1.1 7.3a9.4 9.4 0 0 1-9.4 9.4c-2.1 0-3.2-1-5.2-2l-61.8-35.7a34.1 34.1 0 0 0-14.7-4.2c-3.1 0-6.3 0-8.4 1-29.4 8.4-59.7 12.6-92.2 12.6-156.2 0-281.9-104.8-281.9-234.9 0-130 125.7-234.9 281.9-234.9 156.1 0 281.9 104.9 281.9 234.9 0 70.3-37.7 134.2-97.5 177.2zM711.4 345.6a388.5 388.5 0 0 0-11.9-0.2c-178.1 0-324.5 122-324.5 277.5 0 23.6 3.4 46.5 9.7 68.3h-3.8a425.1 425.1 0 0 1-110.3-15.7c-3.2-1.1-6.3-1.1-9.5-1.1a35.5 35.5 0 0 0-17.8 5.2l-74.6 42.9c-2.1 1.1-4.2 2.1-6.3 2.1a11.6 11.6 0 0 1-11.5-11.5c0-3.2 1-5.2 2.1-8.4 1-1 10.5-35.6 15.7-56.5 0-2.1 1-5.2 1-7.3a23.7 23.7 0 0 0-9.4-18.9C87.8 570.7 42.7 494.3 42.7 409.5 42.7 253.7 195 128 381.9 128c160.6 0 295.7 92.5 329.5 217.5z m-219.9 17.8c24.4 0 43.8-20.4 43.8-43.8 0-24.4-19.3-43.8-43.8-43.8s-43.8 19.3-43.8 43.8 19.3 43.8 43.8 43.8z m-224.4 0c24.4 0 43.8-20.4 43.8-43.8 0-24.4-19.4-43.8-43.8-43.8-24.4 0-43.8 19.3-43.8 43.8s19.4 43.8 43.8 43.8z" p-id="16506"></path></svg>