<svg xmlns="http://www.w3.org/2000/svg" viewBox="0 0 1024 1024" version="1.1"><path d="M747.7 485.5c53.9 16.7 113.9 57 113.9 128.2 0 117.9-169.8 266.2-425.1 266.2-194.8 0-393.8-94.4-393.8-249.7 0-81.2 51.4-175 139.8-263.6 118.3-118.2 256.2-172.1 308-120.1 22.9 22.9 25.1 62.5 10.4 109.7-7.6 23.8 22.4 10.7 22.4 10.7 95.6-40 179-42.4 209.5 1.2 16.2 23.2 14.6 55.7-0.3 93.4-7 17.4 2 20.1 15.4 24z m-310.7 338.7c155.3-15.4 273.1-110.6 263.1-212.6-10.1-102-144.3-172.3-299.6-156.9-155.3 15.4-273.2 110.5-263.1 212.5 10.1 102.1 144.3 172.3 299.6 157zM262.8 616c32.2-65.2 115.7-102 189.7-82.8 76.5 19.8 115.5 91.9 84.3 162.1-31.7 71.8-123 110-200.3 85-74.8-24.1-106.4-97.9-73.7-164.4z m61.7 110.4c24.2 11 56.5 0.6 71.5-23.5 14.8-24.2 7-51.9-17.4-62.3-24-10.1-55.1 0.3-70 23.6-15.1 23.3-8.1 51.3 15.8 62.1z m94.1-77.1c9.3 3.9 21.4-0.5 26.8-9.9 5.2-9.4 1.9-19.9-7.6-23.4-9.2-3.6-20.7 0.8-26.2 9.9-5.2 9.1-2.3 19.5 7 23.3zM847.9 405.3a30.9 30.9 0 1 1-58.8-19.2 58.9 58.9 0 0 0-12.3-57.9 59.5 59.5 0 0 0-56.4-18.1 30.8 30.8 0 1 1-12.9-60.4 121 121 0 0 1 140.4 155.7z m-167.1-280.5A248.8 248.8 0 0 1 917.3 201.4a249 249 0 0 1 52.1 243.4 35.8 35.8 0 0 1-45.2 23 36 36 0 0 1-23.1-45.3 176.8 176.8 0 0 0-205.1-227.3 36.1 36.1 0 0 1-15.1-70.4z" p-id="16594"></path></svg>