<?xml version="1.0" encoding="utf-8"?>
<!-- Generator: Adobe Illustrator 24.3.0, SVG Export Plug-In . SVG Version: 6.00 Build 0)  -->
<svg version="1.1" id="图层_1" xmlns="http://www.w3.org/2000/svg" xmlns:xlink="http://www.w3.org/1999/xlink" x="0px" y="0px"
	 viewBox="0 0 24 24" style="enable-background:new 0 0 24 24;" xml:space="preserve">
<g>
	<path d="M15.4,20.8H9.9c-0.3,0-0.4,0-0.2-0.3c0.4-0.8,0.8-1.8,1.4-2.6c0.1-0.2,0.2-0.3,0.5-0.3h2.6c0.3,0,0.3-0.1,0.3-0.4V7.8
		c0-0.3-0.1-0.4-0.4-0.3h-1.5c-0.3,0-0.4-0.1-0.4-0.3V4.7c0-0.3,0.1-0.4,0.4-0.4h7c0.2,0,0.3,0,0.3,0.3v2.6c0,0.2-0.1,0.3-0.3,0.3
		h-1.5c-0.3,0-0.4,0.1-0.4,0.4v9.3c0,0.2,0.1,0.3,0.3,0.3h2.6c0.3,0,0.4,0.1,0.4,0.4v2.5c0,0.3-0.1,0.4-0.4,0.4
		C19,20.8,17.2,20.8,15.4,20.8L15.4,20.8z"/>
	<path d="M11,13.6c-0.4,0.7-0.7,1.5-1.1,2.2c-0.2,0.5-0.5,0.6-0.9,0.6H6.6c-0.2,0-0.4,0-0.6-0.1c-0.7-0.2-0.9-0.7-0.7-1.5
		c0.4-1.2,1.1-2.2,1.6-3.4c0.1-0.2,0.2-0.3,0.3-0.6H5.1c-0.8-0.2-1.2-0.7-0.8-1.6c0.3-0.9,0.8-1.9,1.3-2.7c0.5-0.9,0.9-2,1.5-3
		c0.1-0.2,0.2-0.3,0.5-0.3h2.5c0.3,0,0.3,0.1,0.2,0.3C9.7,4.7,9,5.9,8.4,7.2C8.3,7.3,8.3,7.4,8.2,7.6s0,0.3,0.2,0.4
		c0.2,0.1,0.2-0.1,0.3-0.2c0.1-0.2,0.2-0.3,0.5-0.3h2.5c0.3,0,0.3,0.1,0.2,0.3c-0.8,1.6-1.6,3.3-2.4,5c-0.3,0.6-0.2,0.8,0.5,0.8H11
		L11,13.6z"/>
	<path d="M5.6,20.8c-0.6,0-1.6,0.1-2.3-0.1c-0.3-0.1-0.4-0.2-0.2-0.4c0.5-0.9,0.9-1.8,1.4-2.7c0.1-0.1,0.1-0.3,0.3-0.2
		c0.7,0.3,1.6,0.2,2.4,0.2h2.1c0.2,0,0.3,0.1,0.2,0.3c-0.5,0.9-0.9,1.8-1.4,2.8c-0.1,0.2-0.2,0.2-0.4,0.2
		C7.1,20.8,6.5,20.8,5.6,20.8L5.6,20.8z"/>
</g>
</svg>
