<?xml version="1.0" encoding="utf-8"?>
<!-- Generator: Adobe Illustrator 24.3.0, SVG Export Plug-In . SVG Version: 6.00 Build 0)  -->
<svg version="1.1" id="图层_1" xmlns="http://www.w3.org/2000/svg" xmlns:xlink="http://www.w3.org/1999/xlink" x="0px" y="0px"
	 viewBox="0 0 24 24" style="enable-background:new 0 0 24 24;" xml:space="preserve">
<path d="M16.4,18.4V9.2c0-2.1-1.7-3.7-3.7-3.7H2.1C2.1,5.5,2,5.6,2,5.6v12.7c0,0.1,0.1,0.1,0.1,0.1H5c0.1,0,0.1-0.1,0.1-0.1v-10
	c0-0.1,0.1-0.1,0.1-0.1h6.1c1.1,0,2.1,0.9,2.1,2.1v8.1c0,0.1,0.1,0.1,0.1,0.1h2.8C16.4,18.5,16.4,18.4,16.4,18.4L16.4,18.4
	L16.4,18.4z M10.7,18.4c0,0.1-0.1,0.1-0.1,0.1c0,0,0,0,0,0H7.8c-0.1,0-0.1-0.1-0.1-0.1v-7.6c0-0.1,0.1-0.1,0.1-0.1h2.8
	c0.1,0,0.1,0.1,0.1,0.1c0,0,0,0,0,0V18.4L10.7,18.4 M22,18.4c0,0.1-0.1,0.1-0.1,0.1H19c-0.1,0-0.1-0.1-0.1-0.1V5.6
	c0-0.1,0.1-0.1,0.1-0.1h2.8c0.1,0,0.1,0.1,0.1,0.1c0,0,0,0,0,0L22,18.4"/>
</svg>
